<?xml version="1.0" encoding="utf-8"?>
<!DOCTYPE svg PUBLIC "-//W3C//DTD SVG 20010904//EN" "http://www.w3.org/TR/2001/REC-SVG-20010904/DTD/svg10.dtd">
<svg version="1.0" xmlns="http://www.w3.org/2000/svg" width="500px" height="500px" viewBox="0 0 500 500" preserveAspectRatio="xMidYMid meet">
 <g fill="#ffc93c">
  <path d="M0 250 l0 -250 250 0 250 0 0 250 0 250 -250 0 -250 0 0 -250z m331.8 127.5 c6.7 -13.4 19.1 -41 26.3 -58.2 l6.3 -15.3 3.3 0 c1.8 0 3.3 0.5 3.3 1.1 0 0.6 0.7 10.4 1.5 21.7 0.8 11.4 2.1 29.4 2.9 40 0.8 10.6 1.6 19.5 1.8 19.8 0.3 0.2 2.5 -0.3 4.9 -1.1 6.4 -2.3 47.6 -14.3 59.9 -17.5 9.1 -2.3 10.5 -2.9 10.2 -4.6 -0.2 -1 -3.9 -16.1 -8.2 -33.4 -8.9 -35.6 -13.8 -57.8 -17.5 -79.3 -4.1 -24.3 -5 -20.8 13.3 -58 15.4 -31.3 31.6 -61.6 45.9 -86.2 3.9 -6.6 7 -12.1 6.9 -12.2 -0.4 -0.5 -52.5 -14.3 -53.9 -14.3 -1.5 0 -17.9 34.3 -32.3 67.3 l-6.9 15.7 -3.6 0 -3.6 0 -0.7 -7.2 c-0.9 -10.7 -8.8 -79.2 -9.1 -79.6 -0.4 -0.4 -60.8 24.7 -61.7 25.7 -0.5 0.4 0.5 6.7 2.1 14.1 8.7 40.3 11.1 51.6 13 62.5 3.2 18.3 7.1 45.4 7.1 49.1 0 3.5 -6.2 17.7 -17.1 39.7 -8.4 16.6 -17.3 32.8 -41 74.4 -17.6 30.8 -22.2 39.2 -21.7 39.4 0.9 0.3 61.5 5.6 62.8 5.5 0.8 0 3.4 -4.2 5.8 -9.1z m-270.3 2.5 c12.1 -2.2 29 -5.2 37.5 -6.6 8.5 -1.5 15.9 -3.1 16.4 -3.5 0.4 -0.4 10.4 -35.8 22 -78.6 l21.2 -77.8 5.7 -0.3 5.7 -0.3 0 4.9 c0 2.7 -1.3 16.6 -3 30.8 -1.6 14.3 -4.1 36.3 -5.5 48.9 -7 60.9 -9.2 81 -8.9 81.3 0.2 0.3 80.6 -12.7 88.4 -14.3 2.3 -0.5 2.7 -1.5 5.8 -15.3 7.5 -32.9 36.7 -151.9 46.8 -190.2 5.8 -21.8 14.8 -53.2 20.7 -71.5 3 -9.3 5.3 -17.1 5.2 -17.3 -0.1 -0.1 -2.6 0.2 -5.6 0.8 -2.9 0.6 -18.6 2.8 -34.8 5 -16.2 2.2 -29.5 4.1 -29.6 4.2 -0.1 0.2 -3 13.1 -6.4 28.8 -7.6 34.7 -19.9 90.5 -28.4 129 l-6.3 28.5 -7.2 0.3 c-8.6 0.3 -8 3.1 -5.2 -23.8 1.1 -10.7 3.6 -38.4 5.5 -61.5 1.9 -23.1 4.8 -55.9 6.5 -73 1.6 -17 2.8 -31.1 2.6 -31.2 -0.1 -0.2 -4 0.4 -8.7 1.2 -4.6 0.9 -14.1 1.8 -21.1 2.2 l-12.6 0.6 -1.6 5.6 c-0.9 3.1 -4.2 14.6 -7.2 25.6 -3 11 -10.3 36.2 -16.1 56 -5.8 19.8 -14.5 50 -19.3 67 l-8.7 31 -6.7 0.3 c-5.9 0.3 -6.6 0.1 -6.6 -1.6 0 -1 4.1 -27.2 9 -58.3 5 -31 11.5 -71.9 14.5 -90.9 3.1 -19 5.8 -35.7 6.1 -37.3 0.7 -3.5 0.7 -3.5 -24.9 0.3 -11.1 1.6 -25.1 3.2 -31 3.6 -9.8 0.6 -10.8 0.9 -11.2 2.8 -0.2 1.2 -2.3 19.7 -4.5 41.1 -2.3 21.5 -4.8 44.6 -5.5 51.5 -0.7 6.9 -5.9 55 -11.4 107 -5.5 52 -10.3 95.8 -10.6 97.4 -0.5 2.8 -0.4 2.8 3.2 2.2 2.1 -0.3 13.7 -2.4 25.8 -4.6z"/>
 </g>
 <g fill="#2b2b2b">
  <path d="M373.6 386.1 c-0.3 -3.1 -1.3 -15.9 -2.1 -28.6 -1.8 -27.2 -3.6 -49.9 -3.9 -50.2 -0.1 -0.1 -3.1 6.6 -6.6 15 -13 31.3 -29.6 66.6 -31.6 67.4 -1.4 0.5 -71.4 -5.4 -72.1 -6.1 -0.5 -0.5 3.9 -8.6 26.7 -48.6 28.8 -50.4 39.6 -70.8 50.9 -95.9 l5.2 -11.4 -2.1 -14.1 c-3.4 -22.8 -7.7 -46.8 -12 -66.6 -7.9 -35.9 -10.2 -47.2 -9.7 -47.6 0.8 -0.8 67.1 -28.4 68.2 -28.4 0.9 0 4.7 29.9 9.3 73.8 0.9 8.3 1.8 15.2 2.2 15.2 0.3 0 3.4 -6.6 6.9 -14.7 6.5 -14.8 31.6 -69.1 32.3 -69.9 0.4 -0.3 53.8 13.6 62 16.2 1.4 0.4 0.2 3 -6.9 15.2 -16.5 28.3 -31.8 57 -47.6 89.2 l-16 32.5 1.2 9 c2.2 16.5 9.9 52.6 19.6 91.4 5.2 21.1 9.4 38.6 9.1 38.8 -0.2 0.3 -5.3 1.7 -11.3 3.3 -10.7 2.7 -48.8 13.8 -63.5 18.4 l-7.6 2.4 -0.6 -5.7z"/>
  <path d="M29 386.9 c0 -1.6 9.3 -89.3 22.4 -211.4 0.8 -7.1 3.3 -30.5 5.6 -52 2.2 -21.4 4.3 -39.9 4.5 -41.1 0.4 -1.9 1.4 -2.2 11.2 -2.8 5.9 -0.4 19.8 -2 30.8 -3.6 11 -1.5 22.9 -3.1 26.3 -3.5 l6.4 -0.6 -0.6 2.8 c-0.3 1.5 -3.7 22.8 -7.6 47.3 -3.8 24.5 -10.5 66.5 -14.8 93.3 l-7.8 48.8 3.4 -0.3 3.5 -0.3 8.7 -31 c4.8 -17 13.5 -47.2 19.3 -67 5.8 -19.8 13.1 -45 16.1 -56 3 -11 6.3 -22.5 7.2 -25.6 l1.6 -5.6 12.6 -0.6 c7 -0.4 17.7 -1.5 23.7 -2.7 14.2 -2.6 13.8 -2.6 13.1 0.7 -0.8 3.6 -6.7 68 -10.6 114.3 -3 36.2 -5.5 63 -6.5 70.3 l-0.5 3.8 4.2 -0.3 4.2 -0.3 6.3 -28.5 c8.7 -39.3 20.9 -95 28.4 -129 3.4 -15.7 6.3 -28.6 6.4 -28.8 0.1 -0.1 11.9 -1.8 26.1 -3.7 14.2 -1.9 31.7 -4.4 38.7 -5.6 7.1 -1.1 13 -1.9 13.2 -1.7 0.2 0.2 -2.5 9.6 -6.1 20.8 -6.8 21.4 -15.7 51.9 -21.8 75 -10 38.2 -39 156 -46.7 190 -1.8 8 -3.4 14.6 -3.5 14.8 -0.2 0.4 -94.3 16.2 -96.4 16.2 -1.6 0 -1.4 -2.6 8.5 -88.5 1.4 -12.6 3.9 -34.6 5.5 -48.9 3.7 -31.9 3.7 -29.8 0.3 -29.4 -2.7 0.3 -2.7 0.5 -23.8 77.8 -11.6 42.6 -21.4 78.1 -21.9 78.8 -0.4 0.6 -1.5 1.2 -2.4 1.2 -1.6 0 -52.3 8.9 -74 13 -12.8 2.5 -13.2 2.5 -13.2 -0.1z"/>
 </g>
</svg>